<svg xmlns="http://www.w3.org/2000/svg" width="16" height="16" viewBox="0 0 16 16">
  <g id="filter" transform="translate(-0.004)">
    <g id="Сгруппировать_232" data-name="Сгруппировать 232" transform="translate(0.004)">
      <path id="Контур_433" data-name="Контур 433" d="M15.433,0H.575A.571.571,0,0,0,0,.571V3.429a.571.571,0,0,0,.189.425L5.718,8.826v6.6a.571.571,0,0,0,.827.511l3.429-1.714a.571.571,0,0,0,.316-.511V8.826l5.525-4.971A.571.571,0,0,0,16,3.429V.571A.571.571,0,0,0,15.433,0Z" transform="translate(-0.004)" fill="#fff"/>
    </g>
  </g>
</svg>
