<svg xmlns="http://www.w3.org/2000/svg" width="32" height="28.47" viewBox="0 0 32 28.47">
  <path id="heart" d="M29.462,2.786A8.6,8.6,0,0,0,23.061,0a8.05,8.05,0,0,0-5.028,1.736A10.287,10.287,0,0,0,16,3.858a10.281,10.281,0,0,0-2.033-2.123A8.049,8.049,0,0,0,8.94,0a8.605,8.605,0,0,0-6.4,2.786A10,10,0,0,0,0,9.617a11.911,11.911,0,0,0,3.174,7.8,67.678,67.678,0,0,0,7.945,7.457c1.1.938,2.349,2,3.644,3.135a1.879,1.879,0,0,0,2.474,0c1.3-1.133,2.544-2.2,3.646-3.136a67.64,67.64,0,0,0,7.944-7.457A11.909,11.909,0,0,0,32,9.617a10,10,0,0,0-2.539-6.831Zm0,0" transform="translate(0)" fill="#24b6ff"/>
</svg>
