<svg xmlns="http://www.w3.org/2000/svg" width="24" height="24" viewBox="0 0 24 24">
  <path id="Контур_431" data-name="Контур 431" d="M73.9,63.96c3.212,0,3.582.018,4.855.074a6.79,6.79,0,0,1,2.234.406,3.834,3.834,0,0,1,1.385.9,3.683,3.683,0,0,1,.9,1.385,6.228,6.228,0,0,1,.406,2.234c.055,1.274.074,1.643.074,4.855s-.018,3.582-.074,4.855a6.789,6.789,0,0,1-.406,2.234,3.833,3.833,0,0,1-.9,1.385,3.683,3.683,0,0,1-1.385.9,6.228,6.228,0,0,1-2.234.406c-1.274.055-1.643.074-4.855.074s-3.582-.018-4.855-.074a6.79,6.79,0,0,1-2.234-.406,3.834,3.834,0,0,1-1.385-.9,3.683,3.683,0,0,1-.9-1.385,6.228,6.228,0,0,1-.406-2.234c-.055-1.274-.074-1.643-.074-4.855s.018-3.582.074-4.855a6.79,6.79,0,0,1,.406-2.234,3.833,3.833,0,0,1,.9-1.385,3.683,3.683,0,0,1,1.385-.9,6.228,6.228,0,0,1,2.234-.406c1.255-.055,1.643-.074,4.855-.074m0-2.16c-3.268,0-3.674.018-4.948.074a8.788,8.788,0,0,0-2.917.554,6.152,6.152,0,0,0-3.508,3.508,8.788,8.788,0,0,0-.554,2.917c-.055,1.274-.074,1.7-.074,4.948,0,3.268.018,3.674.074,4.948a8.788,8.788,0,0,0,.554,2.917,6.152,6.152,0,0,0,3.508,3.508,8.787,8.787,0,0,0,2.917.554c1.274.055,1.7.074,4.948.074s3.674-.018,4.948-.074a8.787,8.787,0,0,0,2.917-.554,6.152,6.152,0,0,0,3.508-3.508,8.788,8.788,0,0,0,.554-2.917c.055-1.274.074-1.7.074-4.948s-.018-3.674-.074-4.948a8.788,8.788,0,0,0-.554-2.917,6.152,6.152,0,0,0-3.508-3.508,8.788,8.788,0,0,0-2.917-.554c-1.274-.055-1.7-.074-4.948-.074Z" transform="translate(-61.9 -61.8)" fill="#24b6ff"/>
</svg>
