<svg xmlns="http://www.w3.org/2000/svg" width="24" height="24" viewBox="0 0 24 24">
  <g id="Сгруппировать_299" data-name="Сгруппировать 299" transform="translate(-1593.047 -1797)">
    <path id="Контур_431" data-name="Контур 431" d="M73.9,63.96c3.212,0,3.582.018,4.855.074a6.79,6.79,0,0,1,2.234.406,3.834,3.834,0,0,1,1.385.9,3.683,3.683,0,0,1,.9,1.385,6.228,6.228,0,0,1,.406,2.234c.055,1.274.074,1.643.074,4.855s-.018,3.582-.074,4.855a6.789,6.789,0,0,1-.406,2.234,3.833,3.833,0,0,1-.9,1.385,3.683,3.683,0,0,1-1.385.9,6.228,6.228,0,0,1-2.234.406c-1.274.055-1.643.074-4.855.074s-3.582-.018-4.855-.074a6.79,6.79,0,0,1-2.234-.406,3.834,3.834,0,0,1-1.385-.9,3.683,3.683,0,0,1-.9-1.385,6.228,6.228,0,0,1-.406-2.234c-.055-1.274-.074-1.643-.074-4.855s.018-3.582.074-4.855a6.79,6.79,0,0,1,.406-2.234,3.833,3.833,0,0,1,.9-1.385,3.683,3.683,0,0,1,1.385-.9,6.228,6.228,0,0,1,2.234-.406c1.255-.055,1.643-.074,4.855-.074m0-2.16c-3.268,0-3.674.018-4.948.074a8.788,8.788,0,0,0-2.917.554,6.152,6.152,0,0,0-3.508,3.508,8.788,8.788,0,0,0-.554,2.917c-.055,1.274-.074,1.7-.074,4.948,0,3.268.018,3.674.074,4.948a8.788,8.788,0,0,0,.554,2.917,6.152,6.152,0,0,0,3.508,3.508,8.787,8.787,0,0,0,2.917.554c1.274.055,1.7.074,4.948.074s3.674-.018,4.948-.074a8.787,8.787,0,0,0,2.917-.554,6.152,6.152,0,0,0,3.508-3.508,8.788,8.788,0,0,0,.554-2.917c.055-1.274.074-1.7.074-4.948s-.018-3.674-.074-4.948a8.788,8.788,0,0,0-.554-2.917,6.152,6.152,0,0,0-3.508-3.508,8.788,8.788,0,0,0-2.917-.554c-1.274-.055-1.7-.074-4.948-.074Z" transform="translate(1531.147 1735.2)" fill="#24b6ff"/>
    <path id="Контур_432" data-name="Контур 432" d="M99.564,93.5a6.125,6.125,0,1,0,6.064,6.125A6.094,6.094,0,0,0,99.564,93.5Zm0,10.1a3.98,3.98,0,1,1,3.94-3.979A3.956,3.956,0,0,1,99.564,103.6Z" transform="translate(1505.285 1709.313)" fill="#24b6ff"/>
    <ellipse id="Эллипс_1" data-name="Эллипс 1" cx="1.416" cy="1.43" rx="1.416" ry="1.43" transform="translate(1609.733 1801.126)" fill="#24b6ff"/>
  </g>
</svg>
