<svg xmlns="http://www.w3.org/2000/svg" width="218.327" height="50" viewBox="0 0 218.327 50">
  <g id="Сгруппировать_3" data-name="Сгруппировать 3" transform="translate(-303 -411)">
    <g id="Сгруппировать_1" data-name="Сгруппировать 1">
      <path id="Контур_1" data-name="Контур 1" d="M4.869,284.132c.523.013,1.214.013,1.981.013,1.394,0,1.852-.28,1.852-1.533,0-1.37-.485-1.726-1.929-1.751h-1.9v3.271ZM6.761,280c1.278-.013,1.726-.308,1.726-1.5s-.487-1.47-1.905-1.47H4.869V280Zm1.315.448c1.317.113,1.765.946,1.765,2.35,0,1.815-.792,2.3-2.812,2.3-1.508,0-2.263-.011-3.259-.1v-8.82a26.343,26.343,0,0,1,2.862-.1c2.159,0,2.939.484,2.939,2.3,0,1.265-.434,1.915-1.5,2.018Z" transform="translate(299.756 173.431)" fill="#f7db39"/>
      <path id="Контур_2" data-name="Контур 2" d="M62.623,300.52a6.608,6.608,0,0,1-2.122.321c-2.159,0-2.952-.869-2.952-3.272s.8-3.259,2.952-3.259a6.3,6.3,0,0,1,2.007.293l-.141.7c-.562-.053-1.24-.077-1.686-.077-1.47,0-1.995.525-1.995,2.338s.524,2.35,1.995,2.35a13.156,13.156,0,0,0,1.84-.127Z" transform="translate(253.478 157.744)" fill="#f7db39"/>
      <path id="Контур_3" data-name="Контур 3" d="M105.481,297.262c.55,0,.677-.46.664-.918,0-.794-.409-1.113-1.533-1.113-1.292,0-1.738.46-1.765,2.031Zm-2.621.844c.116,1.481.678,1.813,1.956,1.813a17.249,17.249,0,0,0,2.173-.152l.1.73a7.665,7.665,0,0,1-2.416.345c-2.134,0-2.964-.894-2.964-3.284,0-2.443.856-3.247,2.85-3.247,1.879,0,2.671.689,2.684,2.034,0,1.109-.448,1.762-1.483,1.762Z" transform="translate(215.478 157.744)" fill="#f7db39"/>
      <path id="Контур_4" data-name="Контур 4" d="M154.274,299.512a6.684,6.684,0,0,0,1.993.384c1.087,0,1.508-.46,1.508-2.286,0-1.766-.384-2.355-1.367-2.355a3.607,3.607,0,0,0-2.134.961Zm-.1-4.052a3.757,3.757,0,0,1,2.582-1.149c1.533,0,2.147,1.137,2.147,3.3,0,2.4-.767,3.232-2.352,3.232a4.4,4.4,0,0,1-2.3-.64,10.161,10.161,0,0,1,.027,1.253v1.8H153.2v-8.794h.882Z" transform="translate(171.17 157.744)" fill="#f7db39"/>
      <path id="Контур_5" data-name="Контур 5" d="M205.367,297.581c0,1.815.435,2.35,1.8,2.35s1.79-.536,1.79-2.35-.435-2.35-1.79-2.35S205.367,295.768,205.367,297.581Zm4.729,0c0,2.391-.792,3.271-2.927,3.271s-2.939-.88-2.939-3.271.792-3.271,2.939-3.271S210.1,295.2,210.1,297.581Z" transform="translate(127.259 157.744)" fill="#f7db39"/>
      <path id="Контур_6" data-name="Контур 6" d="M261.435,300.52a6.608,6.608,0,0,1-2.122.321c-2.161,0-2.953-.869-2.953-3.272s.8-3.259,2.953-3.259a6.291,6.291,0,0,1,2.006.293l-.141.7c-.562-.053-1.239-.077-1.686-.077-1.47,0-1.993.525-1.993,2.338s.523,2.35,1.993,2.35a13.143,13.143,0,0,0,1.84-.127Z" transform="translate(82.401 157.744)" fill="#f7db39"/>
      <path id="Контур_7" data-name="Контур 7" d="M305.595,300.52a6.608,6.608,0,0,1-2.122.321c-2.161,0-2.953-.869-2.953-3.272s.8-3.259,2.953-3.259a6.291,6.291,0,0,1,2.006.293l-.141.7c-.562-.053-1.239-.077-1.686-.077-1.47,0-1.993.525-1.993,2.338s.523,2.35,1.993,2.35a13.142,13.142,0,0,0,1.84-.127Z" transform="translate(44.401 157.744)" fill="#f7db39"/>
      <path id="Контур_8" data-name="Контур 8" d="M352.006,301.626V297.5c0-.268.025-.525.039-.833h-.026a3.743,3.743,0,0,1-.434.73l-3.169,4.231h-.9V295.4h.985v4.129c0,.28-.013.523-.039.831h.026a4.206,4.206,0,0,1,.446-.716l3.169-4.245h.883v6.226Z" transform="translate(3.957 156.806)" fill="#f7db39"/>
      <path id="Контур_9" data-name="Контур 9" d="M405.72,275.62a1.682,1.682,0,0,1-1.9,1.751c-1.24,0-1.993-.753-1.929-1.751h.83a1.088,1.088,0,1,0,2.173,0h.83Zm-.114,8.985v-4.128c0-.268.025-.524.038-.833h-.025a3.744,3.744,0,0,1-.434.73l-3.171,4.231h-.894v-6.226h.985v4.129c0,.28-.014.523-.039.831h.025a4.3,4.3,0,0,1,.448-.716l3.169-4.245h.882V284.6Z" transform="translate(-42.166 173.827)" fill="#f7db39"/>
      <path id="Контур_10" data-name="Контур 10" d="M457.683,300.52a6.6,6.6,0,0,1-2.122.321c-2.159,0-2.952-.869-2.952-3.272s.8-3.259,2.952-3.259a6.3,6.3,0,0,1,2.007.293l-.141.7c-.562-.053-1.24-.077-1.686-.077-1.47,0-1.995.525-1.995,2.338s.525,2.35,1.995,2.35a13.156,13.156,0,0,0,1.84-.127Z" transform="translate(-86.474 157.744)" fill="#f7db39"/>
      <path id="Контур_11" data-name="Контур 11" d="M502.46,298.406c1.394.126,1.751,1.059,2.557,3.22h-1.138c-.767-1.97-1.073-2.8-2.313-2.811h-.921a5.31,5.31,0,0,1,.052.6v2.21H499.61V295.4H500.7v1.854a4.479,4.479,0,0,1-.064.717h.869c1.228,0,1.61-.946,2.211-2.571h1.124c-.7,1.854-1.06,2.826-2.377,2.967Z" transform="translate(-126.918 156.806)" fill="#f7db39"/>
      <path id="Контур_12" data-name="Контур 12" d="M547.249,298.936c0,.651.307.932.971.932a3.557,3.557,0,0,0,2.25-.932v-1.251h-2.4a.747.747,0,0,0-.819.858Zm-.83-4.345a20.935,20.935,0,0,1,3.016-.28c1.38,0,2.122.484,2.122,1.993v4.384H550.7l-.128-1.024A3.721,3.721,0,0,1,548,300.8a1.657,1.657,0,0,1-1.854-1.738v-.677c0-.969.626-1.533,1.726-1.533h2.595v-.55c-.013-.769-.282-1.073-1.265-1.073-.664,0-1.726.077-2.684.165Z" transform="translate(-166.966 157.744)" fill="#f7db39"/>
      <path id="Контур_13" data-name="Контур 13" d="M599.708,295.824c-.434,0-1.008-.015-1.661-.015-1.048,0-1.278.332-1.278,1.126,0,.831.255,1.176,1.317,1.176h1.622Zm-2.581,2.7a1.5,1.5,0,0,1-1.419-1.738c0-1.161.523-1.841,2.313-1.841a25.364,25.364,0,0,1,2.748.092v6.2h-1.062v-2.3h-1.674c-.6,0-.971.232-1.085.64l-.473,1.661H595.35l.562-1.865a1.332,1.332,0,0,1,1.215-.794Z" transform="translate(-209.303 157.202)" fill="#f7db39"/>
      <path id="Контур_14" data-name="Контур 14" d="M669.134,278.882c0,1.726.46,2.261,1.738,2.261,1.253,0,1.7-.523,1.7-2.261,0-1.61-.382-2.083-1.622-2.083C669.415,276.8,669.134,277.54,669.134,278.882Zm4.268-5.546a7.9,7.9,0,0,1-2.684.844,2.276,2.276,0,0,0-1.777,2.108,7.73,7.73,0,0,0-.114.908h.025c.269-.625.755-1.317,2.377-1.317,1.841,0,2.48.869,2.48,3,0,1.97-.55,3.183-2.85,3.183-2.671,0-2.85-1.663-2.85-3.913,0-2.7.293-4.192,2.35-4.8a9.236,9.236,0,0,0,2.787-.858Z" transform="translate(-271.827 176.521)" fill="#f7db39"/>
      <path id="Контур_15" data-name="Контур 15" d="M719.859,298.936c0,.651.307.932.972.932a3.557,3.557,0,0,0,2.249-.932v-1.251h-2.4a.747.747,0,0,0-.817.858Zm-.83-4.345a20.935,20.935,0,0,1,3.016-.28c1.38,0,2.122.484,2.122,1.993v4.384h-.856l-.128-1.024a3.721,3.721,0,0,1-2.568,1.137,1.657,1.657,0,0,1-1.854-1.738v-.677c0-.969.626-1.533,1.726-1.533h2.595v-.55c-.013-.769-.282-1.073-1.265-1.073-.664,0-1.726.077-2.684.165Z" transform="translate(-315.498 157.744)" fill="#f7db39"/>
      <path id="Контур_16" data-name="Контур 16" d="M772.7,299.512a6.7,6.7,0,0,0,1.995.384c1.085,0,1.508-.46,1.508-2.286,0-1.766-.384-2.355-1.368-2.355a3.613,3.613,0,0,0-2.134.961Zm-.1-4.052a3.754,3.754,0,0,1,2.582-1.149c1.533,0,2.147,1.137,2.147,3.3,0,2.4-.767,3.232-2.352,3.232a4.4,4.4,0,0,1-2.3-.64,10.453,10.453,0,0,1,.025,1.253v1.8H771.63v-8.794h.882Z" transform="translate(-360.993 157.744)" fill="#f7db39"/>
      <path id="Контур_17" data-name="Контур 17" d="M822.618,296.3v5.329h-1.087V296.3H819.27v-.9h5.6v.9Z" transform="translate(-401.987 156.806)" fill="#f7db39"/>
      <path id="Контур_18" data-name="Контур 18" d="M869.769,297.262c.55,0,.678-.46.665-.918,0-.794-.409-1.113-1.534-1.113-1.29,0-1.738.46-1.763,2.031Zm-2.62.844c.114,1.481.678,1.813,1.956,1.813a17.244,17.244,0,0,0,2.172-.152l.1.73a7.677,7.677,0,0,1-2.416.345c-2.134,0-2.964-.894-2.964-3.284,0-2.443.855-3.247,2.848-3.247,1.879,0,2.671.689,2.685,2.034,0,1.109-.448,1.762-1.483,1.762Z" transform="translate(-442.199 157.744)" fill="#f7db39"/>
      <path id="Контур_19" data-name="Контур 19" d="M918.554,299.512a6.7,6.7,0,0,0,1.993.384c1.087,0,1.509-.46,1.509-2.286,0-1.766-.384-2.355-1.368-2.355a3.614,3.614,0,0,0-2.134.961Zm-.1-4.052a3.751,3.751,0,0,1,2.581-1.149c1.534,0,2.148,1.137,2.148,3.3,0,2.4-.767,3.232-2.352,3.232a4.4,4.4,0,0,1-2.3-.64,10.452,10.452,0,0,1,.025,1.253v1.8H917.48v-8.794h.883Z" transform="translate(-486.498 157.744)" fill="#f7db39"/>
      <path id="Контур_20" data-name="Контур 20" d="M976.039,301.626h-1.074v-2.89h-3.271v2.89H970.62V295.4h1.074v2.507h3.271V295.4h1.074Z" transform="translate(-532.225 156.806)" fill="#f7db39"/>
      <path id="Контур_21" data-name="Контур 21" d="M1022.479,298.936c0,.651.307.932.971.932a3.558,3.558,0,0,0,2.25-.932v-1.251h-2.4a.747.747,0,0,0-.818.858Zm-.831-4.345a20.954,20.954,0,0,1,3.017-.28c1.38,0,2.122.484,2.122,1.993v4.384h-.857l-.128-1.024a3.721,3.721,0,0,1-2.568,1.137,1.657,1.657,0,0,1-1.854-1.738v-.677c0-.969.626-1.533,1.725-1.533h2.595v-.55c-.013-.769-.282-1.073-1.265-1.073-.665,0-1.725.077-2.684.165Z" transform="translate(-575.904 157.744)" fill="#f7db39"/>
      <path id="Контур_22" data-name="Контур 22" d="M1074.938,295.824c-.434,0-1.008-.015-1.661-.015-1.047,0-1.278.332-1.278,1.126,0,.831.255,1.176,1.317,1.176h1.622Zm-2.582,2.7a1.5,1.5,0,0,1-1.419-1.738c0-1.161.525-1.841,2.314-1.841a25.365,25.365,0,0,1,2.748.092v6.2h-1.062v-2.3h-1.674c-.6,0-.971.232-1.087.64l-.473,1.661h-1.124l.562-1.865a1.331,1.331,0,0,1,1.214-.794v-.052Z" transform="translate(-618.241 157.202)" fill="#f7db39"/>
      <path id="Контур_23" data-name="Контур 23" d="M1149.3,301.626h-1.073v-5.341h-3.2v5.341h-1.06V295.4h5.329Z" transform="translate(-681.394 156.806)" fill="#f7db39"/>
      <path id="Контур_24" data-name="Контур 24" d="M1196.887,301.626H1195.8v-5.369h-1.354c-.537,0-.729.205-.8.781a16.626,16.626,0,0,1-.6,3.271,1.908,1.908,0,0,1-1.956,1.381l-.114-.833a1.3,1.3,0,0,0,1.1-.868,14.168,14.168,0,0,0,.55-3.132,1.443,1.443,0,0,1,1.622-1.458h2.646Z" transform="translate(-721.838 156.806)" fill="#f7db39"/>
      <path id="Контур_25" data-name="Контур 25" d="M1246.8,297.581c0,1.815.434,2.35,1.8,2.35s1.788-.536,1.788-2.35-.434-2.35-1.788-2.35S1246.8,295.768,1246.8,297.581Zm4.729,0c0,2.391-.792,3.271-2.927,3.271s-2.94-.88-2.94-3.271.793-3.271,2.94-3.271S1251.527,295.2,1251.527,297.581Z" transform="translate(-768.899 157.744)" fill="#f7db39"/>
      <path id="Контур_26" data-name="Контур 26" d="M1308.388,303.464l-.1-1.839h-8.3V295.4h1.049v5.357h2.581V295.4h.985v5.357h2.607V295.4h1.048v5.357h.857v2.708Z" transform="translate(-815.65 156.806)" fill="#f7db39"/>
      <path id="Контур_27" data-name="Контур 27" d="M1374.569,298.936c0,.651.307.932.972.932a3.554,3.554,0,0,0,2.249-.932v-1.251h-2.4a.747.747,0,0,0-.819.858Zm-.83-4.345a20.935,20.935,0,0,1,3.016-.28c1.381,0,2.122.484,2.122,1.993v4.384h-.856l-.128-1.024a3.721,3.721,0,0,1-2.568,1.137,1.657,1.657,0,0,1-1.854-1.738v-.677c0-.969.626-1.533,1.726-1.533h2.595v-.55c-.013-.769-.282-1.073-1.265-1.073-.664,0-1.725.077-2.684.165Z" transform="translate(-878.88 157.744)" fill="#f7db39"/>
      <path id="Контур_28" data-name="Контур 28" d="M1426.424,296.257h-1.342a.712.712,0,0,0-.78.756,9,9,0,0,1-.933,3.744h3.055Zm1.891,7.208h-.716l-.089-1.839h-5.036l-.1,1.839h-.7v-2.708h.716a10.228,10.228,0,0,0,.932-3.924,1.39,1.39,0,0,1,1.586-1.433h2.556v5.357h.856Z" transform="translate(-920.356 156.806)" fill="#f7db39"/>
      <path id="Контур_29" data-name="Контур 29" d="M1482.69,298.406c1.394.126,1.752,1.059,2.557,3.22h-1.137c-.767-1.97-1.074-2.8-2.314-2.811h-.921a5.029,5.029,0,0,1,.052.6v2.21h-1.087V295.4h1.087v1.854a4.323,4.323,0,0,1-.064.717h.869c1.228,0,1.611-.946,2.211-2.571h1.126c-.7,1.854-1.062,2.826-2.378,2.967Z" transform="translate(-970.412 156.806)" fill="#f7db39"/>
      <path id="Контур_30" data-name="Контур 30" d="M1527.489,298.936c0,.651.305.932.971.932a3.554,3.554,0,0,0,2.249-.932v-1.251h-2.4a.746.746,0,0,0-.817.858Zm-.831-4.345a20.934,20.934,0,0,1,3.016-.28c1.381,0,2.122.484,2.122,1.993v4.384h-.856l-.127-1.024a3.722,3.722,0,0,1-2.57,1.137,1.656,1.656,0,0,1-1.852-1.738v-.677c0-.969.626-1.533,1.725-1.533h2.593v-.55c-.013-.769-.28-1.073-1.265-1.073-.664,0-1.726.077-2.684.165Z" transform="translate(-1010.469 157.744)" fill="#f7db39"/>
    </g>
    <g id="Сгруппировать_2" data-name="Сгруппировать 2">
      <path id="Контур_31" data-name="Контур 31" d="M3.654,24.217V0h8.587V22.58c0,1.776.773,2.5,2.408,2.5a6.958,6.958,0,0,0,3.454-.863V30.99a12.268,12.268,0,0,1-6.134,1.5c-5.227,0-8.315-2.226-8.315-8.269Z" transform="translate(302.391 411)" fill="#780089"/>
      <path id="Контур_32" data-name="Контур 32" d="M152.369,59.1v-.085a5.586,5.586,0,0,0-5.447-5.8c-3.312,0-5.361,2.613-5.361,5.707v.089a5.586,5.586,0,0,0,5.447,5.8C150.322,64.815,152.369,62.2,152.369,59.1Zm-18.869,0v-.085c0-6.973,5.709-12.769,13.509-12.769s13.422,5.708,13.422,12.68v.089c0,6.973-5.708,12.765-13.509,12.765S133.5,66.078,133.5,59.1Z" transform="translate(188.122 371.202)" fill="#780089"/>
      <path id="Контур_33" data-name="Контур 33" d="M0,53.247H32.662v-7H0Z" transform="translate(303 371.202)" fill="#9b39a6"/>
      <path id="Контур_34" data-name="Контур 34" d="M229.806,64.815c3.313,0,5.361-2.616,5.361-5.711v-.085a5.586,5.586,0,0,0-5.447-5.8l.086-6.973c7.8,0,13.422,5.708,13.422,12.68v.089c0,6.973-5.708,12.765-13.509,12.765Z" transform="translate(105.324 371.202)" fill="#9b39a6"/>
      <path id="Контур_35" data-name="Контур 35" d="M506.65,50.162h23.107V43.31H506.65Z" transform="translate(-132.976 373.731)" fill="#f7db39"/>
      <path id="Контур_36" data-name="Контур 36" d="M395.84,43.169h8.589v3.589a9.253,9.253,0,0,1,7.587-4.089c5.5,0,8.724,3.542,8.724,9.4V68.7h-8.633V54.8c0-2.91-1.453-4.5-3.772-4.5s-3.906,1.587-3.906,4.5V68.7H395.84Z" transform="translate(-37.623 374.282)" fill="#f7db39"/>
      <path id="Контур_37" data-name="Контур 37" d="M597.742,60.654V59.475a8.64,8.64,0,0,0-3.727-.776c-2.726,0-4.316,1.272-4.316,3.273v.091c0,1.772,1.363,2.864,3.317,2.864,2.772,0,4.726-1.727,4.726-4.273ZM593.835,43.98c4.5,0,7.5,1.042,9.5,3.042,1.954,1.954,2.726,4.543,2.726,8.135V69.831h-8.451v-2.68a9.644,9.644,0,0,1-7.588,3.226c-4.861,0-8.587-2.818-8.587-7.86v-.092c0-5.359,4.044-8.043,10.041-8.043a19.5,19.5,0,0,1,6.18,1v-.409c0-2.862,1.279-4.271-2.175-4.271l-1.64-6.722Z" transform="translate(-197.324 373.155)" fill="#e6b933"/>
      <path id="Контур_38" data-name="Контур 38" d="M669.654,43.32c4.5,0,7.5,1.046,9.5,3.042,1.954,1.956,2.726,4.546,2.726,8.135V69.175h-8.451V66.493l.045-11.766v-.412c0-2.491-1.31-3.882-3.93-4.2Z" transform="translate(-273.144 373.723)" fill="#f7db39"/>
      <path id="Контур_39" data-name="Контур 39" d="M1018.982,24.217V0h8.587V22.58c0,1.776.773,2.5,2.409,2.5a6.949,6.949,0,0,0,3.453-.863V30.99a12.26,12.26,0,0,1-6.134,1.5c-5.225,0-8.315-2.226-8.315-8.269Z" transform="translate(-571.307 411)" fill="#2591cc"/>
      <path id="Контур_40" data-name="Контур 40" d="M1167.7,59.1v-.085a5.588,5.588,0,0,0-5.449-5.8c-3.31,0-5.359,2.613-5.359,5.707v.089a5.586,5.586,0,0,0,5.447,5.8C1165.65,64.815,1167.7,62.2,1167.7,59.1Zm-18.869,0v-.085c0-6.973,5.708-12.769,13.509-12.769s13.421,5.708,13.421,12.68v.089c0,6.973-5.707,12.765-13.508,12.765S1148.83,66.078,1148.83,59.1Z" transform="translate(-685.576 371.202)" fill="#2591cc"/>
      <path id="Контур_41" data-name="Контур 41" d="M1015.33,53.247h32.662v-7H1015.33Z" transform="translate(-570.698 371.202)" fill="#24b6ff"/>
      <path id="Контур_42" data-name="Контур 42" d="M1245.128,64.815c3.312,0,5.361-2.616,5.361-5.711v-.085a5.588,5.588,0,0,0-5.449-5.8l.088-6.973c7.8,0,13.421,5.708,13.421,12.68v.089c0,6.973-5.707,12.765-13.509,12.765Z" transform="translate(-768.365 371.202)" fill="#24b6ff"/>
      <path id="Контур_43" data-name="Контур 43" d="M842.764,53.846c-.364-2.908-2.045-4.771-4.635-4.771-2.544,0-4.135,1.862-4.635,4.771ZM825.27,56.073v-.088c0-7.41,5.361-13.315,12.859-13.315,8.724,0,12.768,6.5,12.768,13.948,0,.545-.045,1.229-.091,1.818h-17.22a5.385,5.385,0,0,0,5.679,4.363,7.868,7.868,0,0,0,5.771-2.589l4.771,4A13.263,13.263,0,0,1,838.9,69.3C830.949,69.3,825.27,63.936,825.27,56.073Z" transform="translate(-407.15 374.282)" fill="#2591cc"/>
      <path id="Контур_44" data-name="Контур 44" d="M842.764,54.68c-.364-2.91-2.045-4.772-4.635-4.772-2.544,0-4.135,1.862-4.635,4.772Zm-17.329,4.588a18.1,18.1,0,0,1-.165-2.363v-.091c0-7.406,5.361-13.315,12.859-13.315,8.724,0,12.768,6.5,12.768,13.951,0,.544-.045,1.226-.091,1.818Z" transform="translate(-407.15 373.568)" fill="#24b6ff"/>
      <path id="Контур_45" data-name="Контур 45" d="M1365.043,165.46h.092a4.453,4.453,0,0,1,4.453,4.454h0a4.45,4.45,0,0,1-4.453,4.451h-.092a4.45,4.45,0,0,1-4.453-4.451h0A4.453,4.453,0,0,1,1365.043,165.46Z" transform="translate(-867.797 268.621)" fill="#24b6ff"/>
      <path id="Контур_46" data-name="Контур 46" d="M1449.68,165.62h3.063v1.848a2.775,2.775,0,0,1,2.883-1.992V168.7h-.243c-1.685,0-2.641.957-2.641,3.094v2.934h-3.063Z" transform="translate(-944.459 268.61)" fill="#24b6ff"/>
      <path id="Контур_47" data-name="Контур 47" d="M1501.48,172.478V166.53h3.079v4.96c0,1.052.519,1.6,1.345,1.6s1.395-.552,1.395-1.6v-4.96h3.062v9.108H1507.3v-1.262a3.3,3.3,0,0,1-2.708,1.458C1502.631,175.833,1501.48,174.57,1501.48,172.478Z" transform="translate(-989.033 267.7)" fill="#24b6ff"/>
    </g>
  </g>
</svg>
