<svg xmlns="http://www.w3.org/2000/svg" width="1386.949" height="479.969" viewBox="0 0 1386.949 479.969">
  <g id="Сгруппировать_16" data-name="Сгруппировать 16" transform="translate(-415 -259.781)">
    <path id="Контур_88" data-name="Контур 88" d="M2321.881,174.565s63.163,78.323,25.265,152.855-109.9,56.847-210.966,132.643c-122.688,92.017-208.839,97.073-318.344,56.848-61.9-22.739-72.007-116.221-170.541-174.332-88.828-52.386-16.422-141.486,30.319-155.382s78.322-13.9,78.322-13.9Z" transform="translate(-1190.256 86.479)" fill="#24b6ff"/>
    <circle id="Эллипс_4" data-name="Эллипс 4" cx="56" cy="56" r="56" transform="translate(889 476) rotate(180)" fill="#2591cc"/>
    <circle id="Эллипс_8" data-name="Эллипс 8" cx="56" cy="56" r="56" transform="translate(1785 465) rotate(180)" fill="#2591cc"/>
    <circle id="Эллипс_3" data-name="Эллипс 3" cx="21.5" cy="21.5" r="21.5" transform="translate(945 437) rotate(180)" fill="#2591cc"/>
    <ellipse id="Эллипс_5" data-name="Эллипс 5" cx="14" cy="15" rx="14" ry="15" transform="translate(1003 327) rotate(180)" fill="#2591cc"/>
    <ellipse id="Эллипс_6" data-name="Эллипс 6" cx="14" cy="15" rx="14" ry="15" transform="translate(766 409) rotate(180)" fill="#2591cc"/>
    <ellipse id="Эллипс_7" data-name="Эллипс 7" cx="14" cy="15" rx="14" ry="15" transform="translate(1145 371) rotate(180)" fill="#2591cc"/>
    <ellipse id="Эллипс_9" data-name="Эллипс 9" cx="14" cy="15" rx="14" ry="15" transform="translate(1776 510) rotate(180)" fill="#2591cc"/>
    <circle id="Эллипс_1" data-name="Эллипс 1" cx="56" cy="56" r="56" transform="translate(415 500)" fill="#24b6ff"/>
    <g id="Сгруппировать_15" data-name="Сгруппировать 15" transform="translate(-742.256 107.914)">
      <path id="Контур_48" data-name="Контур 48" d="M1651.8,629.453s-78.657-97.534-31.462-190.349S1757.2,368.312,1883.05,273.924c152.783-114.588,260.065-120.885,396.431-70.792,77.084,28.316,89.669,144.729,212.374,217.094,110.616,65.235,20.45,176.191-37.756,193.5s-97.534,17.3-97.534,17.3Z" fill="#2591cc"/>
      <path id="Контур_49" data-name="Контур 49" d="M2317.631,539.2c-19.632,39.853-44.247,148.753-50.96,154.719s-45.5,29.09-52.213,40.278-3.729,7.46-.746,8.206,171.555,1.491,171.555,1.491-19.393-115.613-21.631-116.359S2317.631,539.2,2317.631,539.2Z" transform="translate(-197.537 -119.44)" fill="#9b39a6"/>
      <path id="Контур_50" data-name="Контур 50" d="M2328.154,743.354c30.96.216,63.63.387,81.615.475l-24.624-147.26c-13.133-25.462-29.077-57.369-29.077-57.369-2.475,5.024-5.029,11.146-7.617,18.021-2.553,110.6,13.377,141.606,1.411,161.314C2340.525,733.913,2332,740.793,2328.154,743.354Z" transform="translate(-235.974 -119.44)" fill="#780089"/>
      <path id="Контур_51" data-name="Контур 51" d="M2452.476,848H1643.012a6.244,6.244,0,0,1,0-12.488h809.463a6.244,6.244,0,1,1,0,12.488Z" transform="translate(-10.287 -216.164)" fill="#2e5b9a"/>
      <path id="Контур_52" data-name="Контур 52" d="M2472.854,467.79c28,25.844,90.321,50.353,90.321,50.353s9.469,87.486,3.008,137.021-2.872,59.587-2.872,59.587H2434.806s-17.247-23.933-48.818-98.354c-20.1-47.382-16.512-100.508-16.512-100.508l78.253-35.178Z" transform="translate(-249.382 -96.129)" fill="#9b39a6"/>
      <path id="Контур_53" data-name="Контур 53" d="M2459.057,740.358h128.505s-3.589-10.05,2.872-59.587c5.32-40.789-.16-107.307-2.262-129.526l-11.686-5.009c-29.34,8.454-46.248,52.215-51.22,94.982-3.328,28.615-50.735,56.785-81.745,72.294C2453.709,732.933,2459.057,740.358,2459.057,740.358Z" transform="translate(-273.633 -121.736)" fill="#780089"/>
      <path id="Контур_54" data-name="Контур 54" d="M2416.821,334.475c-15.491,34.5,3.1,66.461,2.538,65.113s23.447-58.25,23.447-58.25Z" transform="translate(-262.901 -52.612)" fill="#2e5b9a"/>
      <path id="Контур_55" data-name="Контур 55" d="M2490.966,372.351l19.646,71.807a6.5,6.5,0,0,1-1.243,5.817c-4.608,5.676-11.17,17.352-24.4,21.1a32.807,32.807,0,0,1-8.31.932,5.607,5.607,0,0,1-5.535-4.539l-13.163-68.108Z" transform="translate(-278.345 -64.975)" fill="#ffddb1"/>
      <path id="Контур_56" data-name="Контур 56" d="M2487.215,381.261l-7.182,2.944-22.077,18.063,11.851,60.383C2489.9,450.121,2492.833,441.665,2487.215,381.261Z" transform="translate(-278.345 -67.884)" fill="#f8c599"/>
      <path id="Контур_57" data-name="Контур 57" d="M2475.108,390.023c-4.349,23.622-22.025,39.6-39.481,35.683s-25.784-19.2-23.734-49.859c1.608-24.05,13.467-50.191,30.924-46.276S2479.457,366.4,2475.108,390.023Z" transform="translate(-263.21 -50.883)" fill="#ffddb1"/>
      <path id="Контур_58" data-name="Контур 58" d="M2592.411,542.253c26,5.871,30.831,58.68,39.285,114.376.973,6.41,5.968,60.669,5.968,60.669a16.607,16.607,0,0,1-9.449,14.918c-8.5,4.249-11.935,7.46-61.166,7.957-47.282.478-108.243-1.492-108.243-1.492s-.54-17.593,4.31-26.19c7.293-12.929,82.052-31.495,89.015-32.489.995-13.924-6.865-64.3,3.978-98.463,7.46-23.5,15.479-35.805,25.525-39.022A20.17,20.17,0,0,1,2592.411,542.253Z" transform="translate(-278.617 -120.24)" fill="#9b39a6"/>
      <path id="Контур_59" data-name="Контур 59" d="M2498.506,745.769c23.309.35,55.3.685,81.508.42,49.231-.5,52.668-3.708,61.166-7.957,9.946-4.973,10.443-13.426,10.443-13.426s-5.026-57.735-5.967-64.15c-5.471-37.3-11.381-79.975-25.137-100.576,12.93,37.9,15.012,69.878,15.244,83.537.117,6.917-.521,16.389-2.54,23.006-2.237,7.335-7.957,11.935-16.908,9.448-17.9-4.973-40.28,5.47-40.28,5.47s16.908-5.968,32.821-.5,48.734,41.772,12.929,55.2C2610.829,740.352,2545.2,743.7,2498.506,745.769Z" transform="translate(-291.582 -126.255)" fill="#780089"/>
      <path id="Контур_60" data-name="Контур 60" d="M2467.1,792.282s6.631-11.271,20.224-11.271,12.6,22.212,10.609,29.505-9.947,7.625-9.947,7.625l-29.174-1.326Z" transform="translate(-278.626 -198.373)" fill="#780089"/>
      <path id="Прямоугольник_5" data-name="Прямоугольник 5" d="M5.767,0H188.233A5.768,5.768,0,0,1,194,5.768v0a5.767,5.767,0,0,1-5.767,5.767H5.767A5.767,5.767,0,0,1,0,5.768v0A5.767,5.767,0,0,1,5.767,0Z" transform="translate(1969.943 613.295)" fill="#75a1de"/>
      <path id="Контур_61" data-name="Контур 61" d="M2430.322,794.9c-28.511-10.277-35.991-6.408-42.435-8.288-15.913-4.641-19.891-.663-30.169,27.517-2.047,5.615,3.978,5.967,9.946,5.967s13.26-11.6,15.582-12.929,8.619-1.989,8.619-1.989-1.989,0-4.972,5.967-6.631,8.288-1.99,8.288,5.3-7.626,13.924-5.968,5.3,5.968,26.854,5.636,37.812,0,37.463-12.93c-.332-12.266,1.026-18.4-10.609-20.554C2443.583,783.959,2430.322,794.9,2430.322,794.9Z" transform="translate(-245.492 -199.664)" fill="#f8c599"/>
      <path id="Контур_62" data-name="Контур 62" d="M2466.1,796.019c19.062-2.155,13.468,21.591,11.479,23.58s10.614.7,10.614.7a23.018,23.018,0,0,0,.948-20.466c-4.973-10.94-14.919-11.437-14.919-11.437l-8.453,4.641Z" transform="translate(-280.895 -200.783)" fill="#a86b48"/>
      <path id="Контур_63" data-name="Контур 63" d="M2485.41,793.592c-.246,2.943-5.246,4.927-11.17,4.433s-10.525-3.282-10.279-6.225,5.246-4.927,11.169-4.432S2485.656,790.649,2485.41,793.592Z" transform="translate(-280.303 -200.424)" fill="#2e5b9a"/>
      <path id="Контур_64" data-name="Контур 64" d="M2484.267,791.745c-.22,2.63-4.687,4.4-9.979,3.961s-9.4-2.933-9.184-5.562,4.688-4.4,9.98-3.96S2484.487,789.115,2484.267,791.745Z" transform="translate(-280.676 -200.04)" fill="#3e6bab"/>
      <path id="Контур_65" data-name="Контур 65" d="M2481.962,790.7c-.157,1.893-3.374,3.169-7.183,2.85s-6.77-2.11-6.611-4,3.375-3.168,7.184-2.851S2482.12,788.807,2481.962,790.7Z" transform="translate(-281.677 -200.214)" fill="#f0ceb4"/>
      <g id="Сгруппировать_5" data-name="Сгруппировать 5" transform="translate(1738.626 414.071)">
        <path id="Контур_66" data-name="Контур 66" d="M2032.895,705.082H1847.623a20.272,20.272,0,0,1-19.862-16.775L1803.6,554.927a20.394,20.394,0,0,1,19.862-24.174h185.271a20.272,20.272,0,0,1,19.862,16.776l24.164,133.38A20.393,20.393,0,0,1,2032.895,705.082Z" transform="translate(-1803.26 -530.753)" fill="#75a1de"/>
        <path id="Контур_67" data-name="Контур 67" d="M2041.55,683.157l-24.66-130.62a20.467,20.467,0,0,0-20.272-16.429h-188.28a20.806,20.806,0,0,0-4.728,17.416L1828.623,689.7a20.9,20.9,0,0,0,20.56,17.128h172.1C2034.153,706.83,2043.876,695.475,2041.55,683.157Z" transform="translate(-1803.26 -532.501)" fill="#a8ceff"/>
        <path id="Контур_68" data-name="Контур 68" d="M2041.734,769.248h-35.171c-6.272,0-11.357-5.586-11.357-12.477V692.466c0-10.968-8.094-19.859-18.077-19.859h-18.372c-9.984,0-18.077,8.891-18.077,19.859v72.015c0,12.315,9.124,22.276,20.334,22.2l95.988-.659C2057,776.757,2050.166,769.248,2041.734,769.248Z" transform="translate(-1848.117 -577.058)" fill="#75a1de"/>
        <path id="Контур_69" data-name="Контур 69" d="M1942.755,694.756v70.912a21.857,21.857,0,0,0,20.269,21.8l93.678-.585c-.01-1.534-7.395-4.331-16.516-4.331h-38.046a12.286,12.286,0,0,1-12.286-12.286v-75.5A19.555,19.555,0,0,0,1970.3,675.2h-7.99A19.554,19.554,0,0,0,1942.755,694.756Z" transform="translate(-1848.795 -577.905)" fill="#a8ceff"/>
      </g>
      <path id="Контур_70" data-name="Контур 70" d="M2225.65,801.651c14.158-7.865,31.46-5.244,37.751,2.621s7.341,13.108-6.816,13.108-42.471,1.049-47.19.525S2225.65,801.651,2225.65,801.651Z" transform="translate(-196.983 -203.561)" fill="#f8c599"/>
      <path id="Контур_71" data-name="Контур 71" d="M2265,796.532c15.205-3.67,25.594,5.178,38.276,13.632,11.011,7.341,13.224,14.476,1.049,8.389-17.827-8.914-28.314-9.962-28.314-9.962Z" transform="translate(-215.359 -203.162)" fill="#f8c599"/>
      <path id="Контур_72" data-name="Контур 72" d="M2225.069,802.885c-7.679,0-14.382-2.448-19.8-2s-22.585,18.069-19.875,19.424a6.2,6.2,0,0,0,.633.269A9.248,9.248,0,0,0,2197,816.733c2.428-3.9,6.38-8.434,10.98-6.811a48.819,48.819,0,0,0,15.737,2.449Z" transform="translate(-189.279 -204.844)" fill="#f8c599"/>
      <path id="Контур_73" data-name="Контур 73" d="M2236.527,817.745c-7.865-3.146,4.719-29.362,8.914-29.362s19.924,12.584,19.924,12.584-3.7,2.088-16.253-2.1c-3.146-1.049-5.768,16.778-9.438,18.875S2236.527,817.745,2236.527,817.745Z" transform="translate(-205.238 -200.78)" fill="#ffddb1"/>
      <path id="Контур_74" data-name="Контур 74" d="M2407.75,381.151c-.73,28.869,9.1,33.751,15.986,37.671s36.519-2.556,40.869-9.7c11.129-18.267,1.761-35.3,4.25-35.043s4.765,7.369,11.258,16.6c.6.859,4.822,6.563,5.042,4.666,3.014-25.852,16.474-33.879,13.27-60.026-2.363-19.276-14.6-17.746-14.6-17.746s-7.893-16.129-32.464-14.3c-16.463,1.227-31.139,7.64-48.108,12.008s20.076,42.833,42.089,28.78,11.143,16.9,14.616,19.3,1.671.319,3.263,16.159-18.523,26.182-24.289,27.538c-18.434,4.336-21.517,1.295-25.553-5.647C2409.877,395.4,2407.75,381.151,2407.75,381.151Z" transform="translate(-259.08 -42.381)" fill="#2e5b9a"/>
      <path id="Контур_75" data-name="Контур 75" d="M2517.73,397.869c-2.115,7.276-7.283,11.976-11.543,10.5s-4.388-7.39-3.886-15.849c.453-7.626,7.283-11.976,11.543-10.5S2519.844,390.593,2517.73,397.869Z" transform="translate(-292.754 -68.038)" fill="#ffddb1"/>
      <g id="Сгруппировать_10" data-name="Сгруппировать 10" transform="translate(1661.665 236.372)">
        <g id="Сгруппировать_7" data-name="Сгруппировать 7" transform="translate(0 0)">
          <path id="Прямоугольник_6" data-name="Прямоугольник 6" d="M4.6,0H158.977a4.6,4.6,0,0,1,4.6,4.6V69.322a4.6,4.6,0,0,1-4.6,4.6H4.6a4.6,4.6,0,0,1-4.6-4.6V4.6A4.6,4.6,0,0,1,4.6,0Z" fill="#b7e1ff"/>
          <path id="Прямоугольник_7" data-name="Прямоугольник 7" d="M3.719,0h147.2a3.719,3.719,0,0,1,3.719,3.719v43.6a3.719,3.719,0,0,1-3.719,3.719H3.72A3.72,3.72,0,0,1,0,47.314V3.719A3.719,3.719,0,0,1,3.719,0Z" transform="translate(4.473 19.422)" fill="#fff"/>
          <g id="Сгруппировать_6" data-name="Сгруппировать 6" transform="translate(6.744 5.44)">
            <rect id="Прямоугольник_8" data-name="Прямоугольник 8" width="6.409" height="5.768" rx="2.062" fill="#fff"/>
            <path id="Прямоугольник_9" data-name="Прямоугольник 9" d="M2.062,0H4.348a2.06,2.06,0,0,1,2.06,2.06V3.706A2.062,2.062,0,0,1,4.347,5.768H2.062A2.062,2.062,0,0,1,0,3.706V2.062A2.062,2.062,0,0,1,2.062,0Z" transform="translate(11.652)" fill="#fff"/>
            <path id="Прямоугольник_10" data-name="Прямоугольник 10" d="M2.062,0H4.348A2.061,2.061,0,0,1,6.408,2.061V3.706A2.062,2.062,0,0,1,4.347,5.768H2.062A2.062,2.062,0,0,1,0,3.706V2.062A2.062,2.062,0,0,1,2.062,0Z" transform="translate(23.304)" fill="#fff"/>
          </g>
          <path id="Контур_76" data-name="Контур 76" d="M1875.052,310.007h-81.8a2.447,2.447,0,1,1,0-4.893h81.8a2.447,2.447,0,1,1,0,4.893Z" transform="translate(-1722.235 -279.399)" fill="#b7e1ff"/>
          <path id="Контур_77" data-name="Контур 77" d="M1783.717,366.053h-81.8a2.447,2.447,0,0,1,0-4.893h81.8a2.447,2.447,0,1,1,0,4.893Z" transform="translate(-1692.421 -297.694)" fill="#b7e1ff"/>
          <rect id="Прямоугольник_11" data-name="Прямоугольник 11" width="10.136" height="4.894" rx="1.242" transform="translate(97.064 63.466)" fill="#b7e1ff"/>
          <rect id="Прямоугольник_12" data-name="Прямоугольник 12" width="10.137" height="4.894" rx="1.242" transform="translate(109.822 63.466)" fill="#b7e1ff"/>
          <path id="Контур_78" data-name="Контур 78" d="M1850.6,326.6H1715.146a1.66,1.66,0,1,1,0-3.321H1850.6a1.66,1.66,0,1,1,0,3.321Z" transform="translate(-1696.994 -285.328)" fill="#b7e1ff"/>
          <path id="Контур_79" data-name="Контур 79" d="M1850.6,337.236H1715.146a1.66,1.66,0,1,1,0-3.321H1850.6a1.66,1.66,0,1,1,0,3.321Z" transform="translate(-1696.994 -288.801)" fill="#b7e1ff"/>
        </g>
        <g id="Сгруппировать_9" data-name="Сгруппировать 9" transform="translate(36.963 51.905)">
          <path id="Прямоугольник_13" data-name="Прямоугольник 13" d="M4.605,0H158.978a4.6,4.6,0,0,1,4.6,4.6V69.322a4.605,4.605,0,0,1-4.605,4.605H4.605A4.605,4.605,0,0,1,0,69.321V4.605A4.605,4.605,0,0,1,4.605,0Z" fill="#9ec8ff"/>
          <path id="Прямоугольник_14" data-name="Прямоугольник 14" d="M3.719,0h147.2a3.72,3.72,0,0,1,3.72,3.72v43.6a3.719,3.719,0,0,1-3.719,3.719H3.72A3.72,3.72,0,0,1,0,47.315V3.719A3.719,3.719,0,0,1,3.719,0Z" transform="translate(4.473 19.423)" fill="#fff"/>
          <g id="Сгруппировать_8" data-name="Сгруппировать 8" transform="translate(6.744 5.44)">
            <path id="Прямоугольник_15" data-name="Прямоугольник 15" d="M2.062,0H4.348A2.061,2.061,0,0,1,6.408,2.061V3.706A2.062,2.062,0,0,1,4.347,5.768H2.062A2.062,2.062,0,0,1,0,3.706V2.062A2.062,2.062,0,0,1,2.062,0Z" fill="#fff"/>
            <rect id="Прямоугольник_16" data-name="Прямоугольник 16" width="6.409" height="5.768" rx="2.062" transform="translate(11.651)" fill="#fff"/>
            <path id="Прямоугольник_17" data-name="Прямоугольник 17" d="M2.062,0H4.347A2.063,2.063,0,0,1,6.41,2.063V3.706A2.062,2.062,0,0,1,4.348,5.768H2.063A2.063,2.063,0,0,1,0,3.705V2.062A2.062,2.062,0,0,1,2.062,0Z" transform="translate(23.303)" fill="#fff"/>
          </g>
          <path id="Контур_80" data-name="Контур 80" d="M1929.929,387.067h-81.8a2.447,2.447,0,0,1,0-4.894h81.8a2.447,2.447,0,0,1,0,4.894Z" transform="translate(-1777.111 -356.459)" fill="#9ec8ff"/>
          <path id="Контур_81" data-name="Контур 81" d="M1838.594,443.113h-81.8a2.447,2.447,0,0,1,0-4.893h81.8a2.447,2.447,0,1,1,0,4.893Z" transform="translate(-1747.297 -374.754)" fill="#9ec8ff"/>
          <rect id="Прямоугольник_18" data-name="Прямоугольник 18" width="10.137" height="4.894" rx="1.242" transform="translate(97.064 63.466)" fill="#9ec8ff"/>
          <rect id="Прямоугольник_19" data-name="Прямоугольник 19" width="10.137" height="4.894" rx="1.242" transform="translate(109.823 63.466)" fill="#9ec8ff"/>
          <path id="Контур_82" data-name="Контур 82" d="M1905.475,403.658H1770.023a1.66,1.66,0,1,1,0-3.321h135.451a1.66,1.66,0,1,1,0,3.321Z" transform="translate(-1751.871 -362.388)" fill="#9ec8ff"/>
          <path id="Контур_83" data-name="Контур 83" d="M1905.475,414.3H1770.023a1.66,1.66,0,1,1,0-3.32h135.451a1.66,1.66,0,1,1,0,3.32Z" transform="translate(-1751.871 -365.861)" fill="#9ec8ff"/>
        </g>
      </g>
      <g id="Сгруппировать_12" data-name="Сгруппировать 12" transform="translate(1877.939 322.881)">
        <path id="Контур_84" data-name="Контур 84" d="M2073.471,427.062a31.692,31.692,0,1,1-31.692-31.691A31.693,31.693,0,0,1,2073.471,427.062Z" transform="translate(-2010.088 -395.371)" fill="#f7db39"/>
        <g id="Сгруппировать_11" data-name="Сгруппировать 11" transform="translate(17.526 20.578)">
          <path id="Контур_85" data-name="Контур 85" d="M2038.541,438.664h-.088a2.408,2.408,0,0,1-1.722-.817l-8.608-9.783a2.413,2.413,0,0,1,3.623-3.187l6.927,7.872,16.572-16.22a2.413,2.413,0,0,1,3.375,3.449l-18.39,18A2.411,2.411,0,0,1,2038.541,438.664Z" transform="translate(-2027.521 -415.84)" fill="#fff"/>
        </g>
      </g>
      <g id="Сгруппировать_14" data-name="Сгруппировать 14" transform="translate(1915.153 184.657)">
        <path id="Прямоугольник_20" data-name="Прямоугольник 20" d="M9.342,0H138.256A9.342,9.342,0,0,1,147.6,9.342V51.48a9.342,9.342,0,0,1-9.342,9.342H9.341A9.341,9.341,0,0,1,0,51.481V9.342A9.342,9.342,0,0,1,9.342,0Z" transform="translate(0 0)" fill="#9ec8ff"/>
        <path id="Контур_86" data-name="Контур 86" d="M2091.8,264.358v33.557l38.669-38.669S2092.59,264.358,2091.8,264.358Z" transform="translate(-2073.975 -212.712)" fill="#9ec8ff"/>
        <path id="Прямоугольник_21" data-name="Прямоугольник 21" d="M7.919,0H124.41a7.919,7.919,0,0,1,7.919,7.919V40.843a7.919,7.919,0,0,1-7.919,7.919H7.921A7.921,7.921,0,0,1,0,40.841V7.919A7.919,7.919,0,0,1,7.919,0Z" transform="translate(7.634 6.03)" fill="#fff"/>
        <path id="Контур_87" data-name="Контур 87" d="M2153.419,214.475h-59.773a2.622,2.622,0,0,1,0-5.244h59.773a2.622,2.622,0,0,1,0,5.244Z" transform="translate(-2073.721 -196.385)" fill="#9ec8ff"/>
        <rect id="Прямоугольник_22" data-name="Прямоугольник 22" width="113.779" height="2.945" rx="1.473" transform="translate(17.303 25.167)" fill="#9ec8ff"/>
        <rect id="Прямоугольник_23" data-name="Прямоугольник 23" width="113.779" height="2.945" rx="1.473" transform="translate(17.303 30.874)" fill="#9ec8ff"/>
        <g id="Сгруппировать_13" data-name="Сгруппировать 13" transform="translate(101.69 46.927)">
          <path id="Прямоугольник_24" data-name="Прямоугольник 24" d="M2.063,0H4.347A2.062,2.062,0,0,1,6.409,2.062V3.706A2.062,2.062,0,0,1,4.347,5.768H2.063A2.063,2.063,0,0,1,0,3.705V2.063A2.063,2.063,0,0,1,2.063,0Z" fill="#9ec8ff"/>
          <rect id="Прямоугольник_25" data-name="Прямоугольник 25" width="6.408" height="5.768" rx="2.062" transform="translate(11.652)" fill="#9ec8ff"/>
          <rect id="Прямоугольник_26" data-name="Прямоугольник 26" width="6.409" height="5.768" rx="2.062" transform="translate(23.303)" fill="#9ec8ff"/>
        </g>
      </g>
    </g>
    <circle id="Эллипс_2" data-name="Эллипс 2" cx="21.5" cy="21.5" r="21.5" transform="translate(527 607)" fill="#24b6ff"/>
  </g>
</svg>
