<svg xmlns="http://www.w3.org/2000/svg" width="24" height="14" viewBox="0 0 24 14">
  <path id="vk_x5F_alt_1_" d="M55.314,99.6h1.434a1.194,1.194,0,0,0,.657-.29,1.041,1.041,0,0,0,.194-.642s-.03-1.971.867-2.262,2.017,1.91,3.212,2.751a2.244,2.244,0,0,0,1.6.5l3.212-.046s1.673-.107.881-1.452a10.945,10.945,0,0,0-2.39-2.827c-2.017-1.91-1.748-1.6.687-4.906,1.479-2.017,2.062-3.24,1.882-3.775-.179-.5-1.255-.367-1.255-.367l-3.616.031a.819.819,0,0,0-.463.092,1.018,1.018,0,0,0-.314.4,21.58,21.58,0,0,1-1.33,2.888c-1.614,2.8-2.256,2.95-2.51,2.766-.613-.4-.463-1.62-.463-2.491,0-2.705.4-3.836-.777-4.126a5.9,5.9,0,0,0-1.688-.168,7.425,7.425,0,0,0-3,.321c-.418.2-.732.672-.538.688a1.593,1.593,0,0,1,1.061.55,3.586,3.586,0,0,1,.359,1.666s.209,3.194-.493,3.591c-.493.275-1.15-.29-2.585-2.827a23.857,23.857,0,0,1-1.285-2.736,1.022,1.022,0,0,0-.3-.413,1.536,1.536,0,0,0-.553-.229l-3.436.015s-.523.015-.7.244c-.164.2-.015.627-.015.627s2.689,6.434,5.737,9.674A8.084,8.084,0,0,0,55.314,99.6Z" transform="translate(-43.584 -85.675)" fill="#24b6ff" fill-rule="evenodd"/>
</svg>
